<svg width="48" height="48" viewBox="0 0 48 48" fill="none" xmlns="http://www.w3.org/2000/svg">
<path d="M47.5899 24.5333C47.5899 22.56 47.4304 21.12 47.0854 19.6267H24.6472V28.5333H37.8179C37.5525 30.7467 36.1185 34.08 32.932 36.3199L32.8873 36.6181L39.9819 42.1374L40.4734 42.1867C44.9875 38 47.5899 31.8399 47.5899 24.5333Z" fill="#4285F4"/>
<path d="M24.6472 48C31.0997 48 36.5167 45.8666 40.4734 42.1867L32.932 36.3199C30.9139 37.7332 28.2053 38.7199 24.6472 38.7199C18.3274 38.7199 12.9635 34.5333 11.0514 28.7467L10.7711 28.7706L3.39414 34.5039L3.29766 34.7732C7.22762 42.6132 15.3001 48 24.6472 48Z" fill="#34A853"/>
<path d="M11.0514 28.7467C10.5469 27.2534 10.2549 25.6533 10.2549 24C10.2549 22.3466 10.5469 20.7466 11.0249 19.2533L11.0115 18.9353L3.54205 13.1098L3.29766 13.2266C1.67794 16.4799 0.748535 20.1333 0.748535 24C0.748535 27.8667 1.67794 31.5199 3.29766 34.7732L11.0514 28.7467Z" fill="#FBBC05"/>
<path d="M24.6472 9.27994C29.1348 9.27994 32.1619 11.2266 33.8879 12.8534L40.6326 6.24C36.4903 2.37334 31.0997 0 24.6472 0C15.3001 0 7.22762 5.38663 3.29766 13.2266L11.0249 19.2533C12.9635 13.4667 18.3274 9.27994 24.6472 9.27994Z" fill="#EB4335"/>
</svg>
